{
    "accessors" : [
        {
            "bufferView" : 0, 
            "componentType" : 5123, 
            "count" : 6546, 
            "max" : [
                1500
            ], 
            "min" : [
                0
            ], 
            "type" : "SCALAR"
        }, 
        {
            "bufferView" : 1, 
            "componentType" : 5126, 
            "count" : 1501, 
            "max" : [
                1.0, 
                -0.677249550819397, 
                1.0
            ], 
            "min" : [
                -1.0, 
                -0.8041427731513977, 
                -1.0
            ], 
            "type" : "VEC3"
        }, 
        {
            "bufferView" : 2, 
            "componentType" : 5126, 
            "count" : 1501, 
            "max" : [
                1.0, 
                1.0, 
                1.0
            ], 
            "min" : [
                -1.0, 
                -1.0, 
                -1.0
            ], 
            "type" : "VEC3"
        }, 
        {
            "bufferView" : 3, 
            "componentType" : 5126, 
            "count" : 1501, 
            "max" : [
                2.6157984733581543, 
                2.6157981157302856
            ], 
            "min" : [
                -1.6157981157302856, 
                -1.6157984733581543
            ], 
            "type" : "VEC2"
        }, 
        {
            "bufferView" : 4, 
            "componentType" : 5121, 
            "count" : 36, 
            "max" : [
                23
            ], 
            "min" : [
                0
            ], 
            "type" : "SCALAR"
        }, 
        {
            "bufferView" : 5, 
            "componentType" : 5126, 
            "count" : 24, 
            "max" : [
                1.0, 
                -0.677249550819397, 
                1.0
            ], 
            "min" : [
                -1.0, 
                -1.0, 
                -1.0
            ], 
            "type" : "VEC3"
        }, 
        {
            "bufferView" : 6, 
            "componentType" : 5126, 
            "count" : 24, 
            "max" : [
                1.0, 
                1.0, 
                1.0
            ], 
            "min" : [
                -1.0, 
                -1.0, 
                -1.0
            ], 
            "type" : "VEC3"
        }, 
        {
            "bufferView" : 7, 
            "componentType" : 5126, 
            "count" : 24, 
            "max" : [
                1.0, 
                0.0, 
                -0.0, 
                1.0
            ], 
            "min" : [
                1.0, 
                0.0, 
                -0.0, 
                1.0
            ], 
            "type" : "VEC4"
        }, 
        {
            "bufferView" : 8, 
            "componentType" : 5126, 
            "count" : 24, 
            "max" : [
                2.926609992980957, 
                2.926609754562378
            ], 
            "min" : [
                -1.926609754562378, 
                -1.926609992980957
            ], 
            "type" : "VEC2"
        }, 
        {
            "bufferView" : 9, 
            "componentType" : 5121, 
            "count" : 36, 
            "max" : [
                23
            ], 
            "min" : [
                0
            ], 
            "type" : "SCALAR"
        }, 
        {
            "bufferView" : 10, 
            "componentType" : 5126, 
            "count" : 24, 
            "max" : [
                1.0, 
                -0.677249550819397, 
                1.0
            ], 
            "min" : [
                -1.0, 
                -1.0, 
                -1.0
            ], 
            "type" : "VEC3"
        }, 
        {
            "bufferView" : 11, 
            "componentType" : 5126, 
            "count" : 24, 
            "max" : [
                1.0, 
                1.0, 
                1.0
            ], 
            "min" : [
                -1.0, 
                -1.0, 
                -1.0
            ], 
            "type" : "VEC3"
        }, 
        {
            "bufferView" : 12, 
            "componentType" : 5126, 
            "count" : 24, 
            "max" : [
                1.0, 
                0.0, 
                -0.0, 
                1.0
            ], 
            "min" : [
                1.0, 
                0.0, 
                -0.0, 
                1.0
            ], 
            "type" : "VEC4"
        }, 
        {
            "bufferView" : 13, 
            "componentType" : 5126, 
            "count" : 24, 
            "max" : [
                2.926609992980957, 
                2.926609754562378
            ], 
            "min" : [
                -1.926609754562378, 
                -1.926609992980957
            ], 
            "type" : "VEC2"
        }, 
        {
            "bufferView" : 14, 
            "componentType" : 5121, 
            "count" : 36, 
            "max" : [
                23
            ], 
            "min" : [
                0
            ], 
            "type" : "SCALAR"
        }, 
        {
            "bufferView" : 15, 
            "componentType" : 5126, 
            "count" : 24, 
            "max" : [
                1.0, 
                -0.677249550819397, 
                1.0
            ], 
            "min" : [
                -1.0, 
                -1.0, 
                -1.0
            ], 
            "type" : "VEC3"
        }, 
        {
            "bufferView" : 16, 
            "componentType" : 5126, 
            "count" : 24, 
            "max" : [
                1.0, 
                1.0, 
                1.0
            ], 
            "min" : [
                -1.0, 
                -1.0, 
                -1.0
            ], 
            "type" : "VEC3"
        }, 
        {
            "bufferView" : 17, 
            "componentType" : 5126, 
            "count" : 24, 
            "max" : [
                1.0, 
                0.0, 
                -0.0, 
                1.0
            ], 
            "min" : [
                1.0, 
                0.0, 
                -0.0, 
                1.0
            ], 
            "type" : "VEC4"
        }, 
        {
            "bufferView" : 18, 
            "componentType" : 5126, 
            "count" : 24, 
            "max" : [
                2.926609992980957, 
                2.926609754562378
            ], 
            "min" : [
                -1.926609754562378, 
                -1.926609992980957
            ], 
            "type" : "VEC2"
        }, 
        {
            "bufferView" : 19, 
            "componentType" : 5121, 
            "count" : 36, 
            "max" : [
                23
            ], 
            "min" : [
                0
            ], 
            "type" : "SCALAR"
        }, 
        {
            "bufferView" : 20, 
            "componentType" : 5126, 
            "count" : 24, 
            "max" : [
                1.0, 
                -0.677249550819397, 
                1.0
            ], 
            "min" : [
                -1.0, 
                -1.0, 
                -1.0
            ], 
            "type" : "VEC3"
        }, 
        {
            "bufferView" : 21, 
            "componentType" : 5126, 
            "count" : 24, 
            "max" : [
                1.0, 
                1.0, 
                1.0
            ], 
            "min" : [
                -1.0, 
                -1.0, 
                -1.0
            ], 
            "type" : "VEC3"
        }, 
        {
            "bufferView" : 22, 
            "componentType" : 5126, 
            "count" : 24, 
            "max" : [
                1.0, 
                0.0, 
                -0.0, 
                1.0
            ], 
            "min" : [
                1.0, 
                0.0, 
                -0.0, 
                1.0
            ], 
            "type" : "VEC4"
        }, 
        {
            "bufferView" : 23, 
            "componentType" : 5126, 
            "count" : 24, 
            "max" : [
                2.926609992980957, 
                2.926609754562378
            ], 
            "min" : [
                -1.926609754562378, 
                -1.926609992980957
            ], 
            "type" : "VEC2"
        }
    ], 
    "asset" : {
        "generator" : "Khronos Blender glTF 2.0 exporter", 
        "version" : "2.0"
    }, 
    "bufferViews" : [
        {
            "buffer" : 0, 
            "byteLength" : 13092, 
            "byteOffset" : 0, 
            "target" : 34963
        }, 
        {
            "buffer" : 0, 
            "byteLength" : 18012, 
            "byteOffset" : 13092, 
            "target" : 34962
        }, 
        {
            "buffer" : 0, 
            "byteLength" : 18012, 
            "byteOffset" : 31104, 
            "target" : 34962
        }, 
        {
            "buffer" : 0, 
            "byteLength" : 12008, 
            "byteOffset" : 49116, 
            "target" : 34962
        }, 
        {
            "buffer" : 0, 
            "byteLength" : 36, 
            "byteOffset" : 61124, 
            "target" : 34963
        }, 
        {
            "buffer" : 0, 
            "byteLength" : 288, 
            "byteOffset" : 61160, 
            "target" : 34962
        }, 
        {
            "buffer" : 0, 
            "byteLength" : 288, 
            "byteOffset" : 61448, 
            "target" : 34962
        }, 
        {
            "buffer" : 0, 
            "byteLength" : 384, 
            "byteOffset" : 61736, 
            "target" : 34962
        }, 
        {
            "buffer" : 0, 
            "byteLength" : 192, 
            "byteOffset" : 62120, 
            "target" : 34962
        }, 
        {
            "buffer" : 0, 
            "byteLength" : 36, 
            "byteOffset" : 62312, 
            "target" : 34963
        }, 
        {
            "buffer" : 0, 
            "byteLength" : 288, 
            "byteOffset" : 62348, 
            "target" : 34962
        }, 
        {
            "buffer" : 0, 
            "byteLength" : 288, 
            "byteOffset" : 62636, 
            "target" : 34962
        }, 
        {
            "buffer" : 0, 
            "byteLength" : 384, 
            "byteOffset" : 62924, 
            "target" : 34962
        }, 
        {
            "buffer" : 0, 
            "byteLength" : 192, 
            "byteOffset" : 63308, 
            "target" : 34962
        }, 
        {
            "buffer" : 0, 
            "byteLength" : 36, 
            "byteOffset" : 63500, 
            "target" : 34963
        }, 
        {
            "buffer" : 0, 
            "byteLength" : 288, 
            "byteOffset" : 63536, 
            "target" : 34962
        }, 
        {
            "buffer" : 0, 
            "byteLength" : 288, 
            "byteOffset" : 63824, 
            "target" : 34962
        }, 
        {
            "buffer" : 0, 
            "byteLength" : 384, 
            "byteOffset" : 64112, 
            "target" : 34962
        }, 
        {
            "buffer" : 0, 
            "byteLength" : 192, 
            "byteOffset" : 64496, 
            "target" : 34962
        }, 
        {
            "buffer" : 0, 
            "byteLength" : 36, 
            "byteOffset" : 64688, 
            "target" : 34963
        }, 
        {
            "buffer" : 0, 
            "byteLength" : 288, 
            "byteOffset" : 64724, 
            "target" : 34962
        }, 
        {
            "buffer" : 0, 
            "byteLength" : 288, 
            "byteOffset" : 65012, 
            "target" : 34962
        }, 
        {
            "buffer" : 0, 
            "byteLength" : 384, 
            "byteOffset" : 65300, 
            "target" : 34962
        }, 
        {
            "buffer" : 0, 
            "byteLength" : 192, 
            "byteOffset" : 65684, 
            "target" : 34962
        }
    ], 
    "buffers" : [
        {
            "byteLength" : 65876, 
            "uri" : "world_1.bin"
        }
    ], 
    "cameras" : [
        {
            "name" : "Camera", 
            "perspective" : {
                "aspectRatio" : 1.7777777777777777, 
                "yfov" : 0.5033799372418416, 
                "zfar" : 100.0, 
                "znear" : 0.10000000149011612
            }, 
            "type" : "perspective"
        }
    ], 
    "images" : [
        {
            "uri" : "grass.png"
        }
    ], 
    "materials" : [
        {
            "name" : "GrassMat", 
            "pbrMetallicRoughness" : {
                "baseColorTexture" : {
                    "index" : 0
                }
            }
        }
    ], 
    "meshes" : [
        {
            "name" : "Cube.006", 
            "primitives" : [
                {
                    "attributes" : {
                        "NORMAL" : 2, 
                        "POSITION" : 1, 
                        "TEXCOORD_0" : 3
                    }, 
                    "indices" : 0, 
                    "material" : 0
                }
            ]
        }, 
        {
            "name" : "Cube.000", 
            "primitives" : [
                {
                    "attributes" : {
                        "NORMAL" : 6, 
                        "POSITION" : 5, 
                        "TANGENT" : 7, 
                        "TEXCOORD_0" : 8
                    }, 
                    "indices" : 4
                }
            ]
        }, 
        {
            "name" : "Cube.005", 
            "primitives" : [
                {
                    "attributes" : {
                        "NORMAL" : 11, 
                        "POSITION" : 10, 
                        "TANGENT" : 12, 
                        "TEXCOORD_0" : 13
                    }, 
                    "indices" : 9, 
                    "material" : 0
                }
            ]
        }, 
        {
            "name" : "Cube.004", 
            "primitives" : [
                {
                    "attributes" : {
                        "NORMAL" : 16, 
                        "POSITION" : 15, 
                        "TANGENT" : 17, 
                        "TEXCOORD_0" : 18
                    }, 
                    "indices" : 14, 
                    "material" : 0
                }
            ]
        }, 
        {
            "name" : "Cube.003", 
            "primitives" : [
                {
                    "attributes" : {
                        "NORMAL" : 21, 
                        "POSITION" : 20, 
                        "TANGENT" : 22, 
                        "TEXCOORD_0" : 23
                    }, 
                    "indices" : 19, 
                    "material" : 0
                }
            ]
        }
    ], 
    "nodes" : [
        {
            "camera" : 0, 
            "name" : "Correction_Camera", 
            "rotation" : [
                -0.7071067690849304, 
                -0.0, 
                0.0, 
                0.7071067690849304
            ]
        }, 
        {
            "children" : [
                0
            ], 
            "name" : "Camera", 
            "rotation" : [
                0.483536034822464, 
                0.33687159419059753, 
                -0.20870360732078552, 
                0.7804827094078064
            ], 
            "translation" : [
                16.262065887451172, 
                10.257335662841797, 
                6.5076398849487305
            ]
        }, 
        {
            "mesh" : 1, 
            "name" : "Cube.000", 
            "rotation" : [
                0.0, 
                0.7071068286895752, 
                -0.0, 
                0.7071067690849304
            ], 
            "scale" : [
                2.150956153869629, 
                2.150956153869629, 
                2.150956153869629
            ], 
            "translation" : [
                -4.753875732421875, 
                3.8176722526550293, 
                5.463377952575684
            ]
        }, 
        {
            "mesh" : 4, 
            "name" : "Cube.001", 
            "rotation" : [
                0.0, 
                0.7071068286895752, 
                -0.0, 
                0.7071067690849304
            ], 
            "scale" : [
                2.150956153869629, 
                2.150956153869629, 
                2.150956153869629
            ], 
            "translation" : [
                -4.667053699493408, 
                7.771113395690918, 
                -4.865748405456543
            ]
        }, 
        {
            "mesh" : 3, 
            "name" : "Cube.002", 
            "rotation" : [
                0.0, 
                0.7071068286895752, 
                -0.0, 
                0.7071067690849304
            ], 
            "scale" : [
                2.150956153869629, 
                2.150956153869629, 
                2.150956153869629
            ], 
            "translation" : [
                5.944666862487793, 
                11.484820365905762, 
                -5.707932949066162
            ]
        }, 
        {
            "mesh" : 2, 
            "name" : "Cube.003", 
            "rotation" : [
                0.0, 
                0.7071068286895752, 
                -0.0, 
                0.7071067690849304
            ], 
            "scale" : [
                2.150956153869629, 
                2.150956153869629, 
                2.150956153869629
            ], 
            "translation" : [
                12.516887664794922, 
                2.3136184215545654, 
                -6.6579742431640625
            ]
        }, 
        {
            "mesh" : 0, 
            "name" : "Cube.004", 
            "rotation" : [
                0.0, 
                0.7071068286895752, 
                -0.0, 
                0.7071067690849304
            ], 
            "scale" : [
                9.097844123840332, 
                9.097844123840332, 
                9.097844123840332
            ], 
            "translation" : [
                3.628798484802246, 
                5.853849411010742, 
                0.2486128807067871
            ]
        }, 
        {
            "name" : "Lamp", 
            "rotation" : [
                0.16907575726509094, 
                0.7558802962303162, 
                -0.27217137813568115, 
                0.570947527885437
            ], 
            "scale" : [
                1.0, 
                1.0, 
                0.9999999403953552
            ], 
            "translation" : [
                12.857179641723633, 
                10.817532539367676, 
                -1.0054539442062378
            ]
        }
    ], 
    "samplers" : [
        {}
    ], 
    "scene" : 0, 
    "scenes" : [
        {
            "name" : "Scene", 
            "nodes" : [
                7, 
                1, 
                5, 
                2, 
                3, 
                4, 
                6
            ]
        }
    ], 
    "textures" : [
        {
            "sampler" : 0, 
            "source" : 0
        }
    ]
}
